<svg xmlns="http://www.w3.org/2000/svg" version="1.1" xmlns:xlink="http://www.w3.org/1999/xlink"
    xmlns:svgjs="http://svgjs.dev/svgjs" width="1440" height="560" preserveAspectRatio="none" viewBox="0 0 1440 560">
    <g mask="url(&quot;#SvgjsMask1858&quot;)" fill="none">
        <rect width="1440" height="560" x="0" y="0" fill="url(&quot;#SvgjsLinearGradient1859&quot;)"></rect>
        <path d="M0 0L103.02 0L0 95.83z" fill="rgba(255, 255, 255, .1)"></path>
        <path d="M0 95.83L103.02 0L814.81 0L0 142.67000000000002z" fill="rgba(255, 255, 255, .075)"></path>
        <path d="M0 142.67000000000002L814.81 0L1183.85 0L0 218.21000000000004z" fill="rgba(255, 255, 255, .05)"></path>
        <path d="M0 218.21000000000004L1183.85 0L1290.79 0L0 432.28000000000003z" fill="rgba(255, 255, 255, .025)">
        </path>
        <path d="M1440 560L1375.34 560L1440 502.89z" fill="rgba(0, 0, 0, .1)"></path>
        <path d="M1440 502.89L1375.34 560L1161.74 560L1440 488.65999999999997z" fill="rgba(0, 0, 0, .075)"></path>
        <path d="M1440 488.65999999999997L1161.74 560L536.85 560L1440 335.16999999999996z" fill="rgba(0, 0, 0, .05)">
        </path>
        <path d="M1440 335.16999999999996L536.85 560L523.48 560L1440 205.99999999999997z" fill="rgba(0, 0, 0, .025)">
        </path>
    </g>
    <defs>
        <mask id="SvgjsMask1858">
            <rect width="1440" height="560" fill="#ffffff"></rect>
        </mask>
        <linearGradient x1="15.28%" y1="-39.29%" x2="84.72%" y2="139.29%" gradientUnits="userSpaceOnUse"
            id="SvgjsLinearGradient1859">
            <stop stop-color="#0f003b" offset="0"></stop>
            <stop stop-color="rgba(44,0,126,0.979)" offset="1"></stop>
        </linearGradient>
    </defs>
</svg>