<svg xmlns="http://www.w3.org/2000/svg" version="1.1" xmlns:xlink="http://www.w3.org/1999/xlink" xmlns:svgjs="http://svgjs.dev/svgjs" width="1440" height="560" preserveAspectRatio="none" viewBox="0 0 1440 560"><g mask="url(&quot;#SvgjsMask1114&quot;)" fill="none"><rect width="1440" height="560" x="0" y="0" fill="rgba(203, 201, 252, 1)"></rect><path d="M0,688.675C126.522,703.615,241.313,607.521,334.822,520.993C418.7,443.377,469.927,338.268,498.308,227.569C523.465,129.447,483.304,31.328,486.322,-69.923C490.181,-199.39,580.028,-335.299,518.483,-449.268C457.209,-562.736,308.127,-591.667,184.593,-628.667C60.496,-665.835,-69.475,-696.284,-194.631,-662.852C-321.312,-629.012,-427.401,-543.803,-511.063,-442.838C-593.494,-343.357,-658.846,-224.631,-664.692,-95.568C-670.302,28.283,-613.053,145.844,-542.34,247.678C-479.512,338.157,-373.055,378.004,-287.59,447.499C-188.513,528.062,-126.816,673.701,0,688.675" fill="#a29efa"></path><path d="M1440 1151.223C1549.038 1166.1019999999999 1650.07 1089.243 1735.701 1020.119 1815.283 955.877 1884.73 873.27 1907.767 773.6220000000001 1929.094 681.372 1861.809 594.701 1855.897 500.203 1849.225 393.56 1927.3690000000001 277.302 1871.036 186.50599999999997 1815.337 96.73200000000003 1684.829 100.45299999999997 1585.518 64.411 1478.628 25.618000000000052 1373.802-68.83699999999999 1265.841-33.13099999999997 1157.5729999999999 2.677000000000021 1129.702 141.392 1066.255 236.14800000000002 1011.495 317.93100000000004 935.935 388.14099999999996 918.864 485.072 901.537 583.458 920.613 687.995 971.5450000000001 773.936 1020.0419999999999 855.769 1117.8980000000001 886.258 1191.982 945.924 1277.294 1014.633 1331.466 1136.413 1440 1151.223" fill="#f4f4fe"></path></g><defs><mask id="SvgjsMask1114"><rect width="1440" height="560" fill="#ffffff"></rect></mask></defs></svg>